<?xml version="1.0" standalone="no"?>
<!DOCTYPE svg PUBLIC "-//W3C//DTD SVG 20010904//EN"
 "http://www.w3.org/TR/2001/REC-SVG-20010904/DTD/svg10.dtd">
<svg version="1.0" xmlns="http://www.w3.org/2000/svg"
 width="114.000000pt" height="114.000000pt" viewBox="0 0 114.000000 114.000000"
 preserveAspectRatio="xMidYMid meet">
<metadata>
Created by potrace 1.11, written by Peter Selinger 2001-2013
</metadata>
<g transform="translate(0.000000,114.000000) scale(0.100000,-0.100000)"
fill="#000000" stroke="none">
<path d="M0 645 l0 -295 343 0 c311 0 370 -4 368 -24 -3 -20 1 -26 13 -26 8 0
18 -4 21 -10 3 -6 -1 -7 -10 -4 -12 5 -14 2 -6 -17 5 -13 14 -23 19 -22 5 1 8
-7 5 -17 -4 -14 0 -20 13 -20 9 0 14 3 11 7 -4 4 7 13 24 20 18 7 29 16 26 20
-4 3 1 11 10 18 9 7 17 23 18 36 1 13 7 24 12 24 6 0 15 3 19 7 4 5 36 8 71 8
l63 0 0 94 c0 71 4 97 15 106 8 7 12 16 9 21 -3 5 0 8 8 7 7 -2 12 5 12 14 -1
10 3 15 8 12 5 -3 23 8 40 25 17 17 26 31 20 31 -15 0 -87 -50 -85 -59 1 -4
-5 -8 -13 -8 -12 0 -14 29 -14 174 l0 173 -510 0 -510 0 0 -295z m990 91 c0
-108 -4 -177 -10 -181 -6 -4 -8 -11 -4 -16 3 -5 2 -8 -3 -7 -10 4 -73 -52 -73
-65 0 -5 -11 -18 -25 -29 -14 -11 -23 -24 -20 -29 4 -5 1 -9 -5 -9 -6 0 -9 -4
-6 -8 3 -5 -13 -9 -34 -10 -28 -2 -49 4 -70 19 -25 19 -33 21 -55 11 -14 -6
-25 -16 -25 -22 0 -7 -107 -10 -315 -10 l-315 0 0 265 0 265 480 0 480 0 0
-174z m0 -302 l0 -54 -38 0 c-47 0 -58 9 -32 27 12 8 17 20 13 30 -4 10 -2 14
5 9 13 -8 44 33 35 47 -3 6 -1 7 5 3 7 -4 12 -31 12 -62z m-55 46 c-3 -5 -12
-10 -18 -10 -7 0 -6 4 3 10 19 12 23 12 15 0z m-48 -75 c0 -8 -4 -12 -9 -9 -5
3 -6 10 -3 15 9 13 12 11 12 -6z m-79 -76 c12 -19 11 -19 -8 -9 -11 6 -20 15
-20 20 0 17 15 11 28 -11z m-43 -8 c3 -5 2 -12 -3 -15 -5 -3 -9 1 -9 9 0 17 3
19 12 6z m35 -15 c0 -2 -8 -10 -17 -17 -16 -13 -17 -12 -4 4 13 16 21 21 21
13z m10 -46 c0 -5 -2 -10 -4 -10 -3 0 -8 5 -11 10 -3 6 -1 10 4 10 6 0 11 -4
11 -10z"/>
<path d="M834 803 l1 -68 50 0 50 0 3 68 3 67 -54 0 -54 0 1 -67z"/>
<path d="M174 709 c-3 -5 -3 -12 -1 -17 6 -9 494 -9 503 1 4 4 4 10 0 15 -11
10 -495 11 -502 1z"/>
<path d="M172 618 c6 -16 498 -19 498 -3 0 6 -92 11 -251 13 -199 2 -250 0
-247 -10z"/>
<path d="M174 539 c-3 -6 -3 -13 0 -17 8 -8 494 -8 502 1 3 3 3 10 0 15 -8 13
-494 14 -502 1z"/>
</g>
</svg>
